bicep_curl
version=1
nRows=181
nColumns=3
inDegrees=yes

# SIMM Motion File Header:
name bicep_curl
datacolumns 3
datarows 181
otherdata 1
range 0.0000 0.1800
endheader
time	/jointset/r_shoulder/r_shoulder_elev/value	/jointset/r_elbow/r_elbow_flex/value
0.0000	0.0000	42.7000
0.0010	0.0000	42.6350
0.0020	0.0000	42.5701
0.0030	0.0000	42.5051
0.0040	0.0000	42.4402
0.0050	0.0000	42.3752
0.0060	0.0000	42.3102
0.0070	0.0000	42.2453
0.0080	0.0000	42.1803
0.0090	0.0000	42.1154
0.0100	0.0000	42.0504
0.0110	0.0000	41.9854
0.0120	0.0000	41.9205
0.0130	0.0000	41.8555
0.0140	0.0000	41.7906
0.0150	0.0000	41.7256
0.0160	0.0000	41.6606
0.0170	0.0000	41.5957
0.0180	0.0000	41.5307
0.0190	0.0000	41.4658
0.0200	0.0000	41.4008
0.0210	0.0000	41.3358
0.0220	0.0000	41.2709
0.0230	0.0000	41.2059
0.0240	0.0000	41.1410
0.0250	0.0000	41.0760
0.0260	0.0000	41.0110
0.0270	0.0000	40.9461
0.0280	0.0000	40.8811
0.0290	0.0000	40.8162
0.0300	0.0000	40.7512
0.0310	0.0000	40.6862
0.0320	0.0000	40.6213
0.0330	0.0000	40.5563
0.0340	0.0000	40.4914
0.0350	0.0000	40.4264
0.0360	0.0000	40.3614
0.0370	0.0000	40.2965
0.0380	0.0000	40.2315
0.0390	0.0000	40.1666
0.0400	0.0000	40.1016
0.0410	0.0000	40.0366
0.0420	0.0000	39.9717
0.0430	0.0000	39.9067
0.0440	0.0000	39.8418
0.0450	0.0000	39.7768
0.0460	0.0000	39.7118
0.0470	0.0000	39.6469
0.0480	0.0000	39.5819
0.0490	0.0000	39.5170
0.0500	0.0000	39.4520
0.0510	0.0000	39.3870
0.0520	0.0000	39.3221
0.0530	0.0000	39.2571
0.0540	0.0000	39.1922
0.0550	0.0000	39.1272
0.0560	0.0000	39.0622
0.0570	0.0000	38.9973
0.0580	0.0000	38.9323
0.0590	0.0000	38.8674
0.0600	0.0000	38.8024
0.0610	0.0000	38.7374
0.0620	0.0000	38.6725
0.0630	0.0000	38.6075
0.0640	0.0000	38.5426
0.0650	0.0000	38.4776
0.0660	0.0000	38.4126
0.0670	0.0000	38.3477
0.0680	0.0000	38.2827
0.0690	0.0000	38.2178
0.0700	0.0000	38.1528
0.0710	0.0000	38.0878
0.0720	0.0000	38.0229
0.0730	0.0000	37.9579
0.0740	0.0000	37.8930
0.0750	0.0000	37.8280
0.0760	0.0000	37.7630
0.0770	0.0000	37.6981
0.0780	0.0000	37.6331
0.0790	0.0000	37.5682
0.0800	0.0000	37.5032
0.0810	0.0000	37.4382
0.0820	0.0000	37.3733
0.0830	0.0000	37.3083
0.0840	0.0000	37.2434
0.0850	0.0000	37.1784
0.0860	0.0000	37.1134
0.0870	0.0000	37.0485
0.0880	0.0000	36.9835
0.0890	0.0000	36.9186
0.0900	0.0000	36.8536
0.0910	0.0000	36.7886
0.0920	0.0000	36.7237
0.0930	0.0000	36.6587
0.0940	0.0000	36.5938
0.0950	0.0000	36.5288
0.0960	0.0000	36.4638
0.0970	0.0000	36.3989
0.0980	0.0000	36.3339
0.0990	0.0000	36.2690
0.1000	0.0000	36.2040
0.1010	0.0000	36.1390
0.1020	0.0000	36.0741
0.1030	0.0000	36.0091
0.1040	0.0000	35.9442
0.1050	0.0000	35.8792
0.1060	0.0000	35.8142
0.1070	0.0000	35.7493
0.1080	0.0000	35.6843
0.1090	0.0000	35.6194
0.1100	0.0000	35.5544
0.1110	0.0000	35.4894
0.1120	0.0000	35.4245
0.1130	0.0000	35.3595
0.1140	0.0000	35.2946
0.1150	0.0000	35.2296
0.1160	0.0000	35.1646
0.1170	0.0000	35.0997
0.1180	0.0000	35.0347
0.1190	0.0000	34.9698
0.1200	0.0000	34.9048
0.1210	0.0000	34.8398
0.1220	0.0000	34.7749
0.1230	0.0000	34.7099
0.1240	0.0000	34.6450
0.1250	0.0000	34.5800
0.1260	0.0000	34.5150
0.1270	0.0000	34.4501
0.1280	0.0000	34.3851
0.1290	0.0000	34.3202
0.1300	0.0000	34.2552
0.1310	0.0000	34.1902
0.1320	0.0000	34.1253
0.1330	0.0000	34.0603
0.1340	0.0000	33.9954
0.1350	0.0000	33.9304
0.1360	0.0000	33.8654
0.1370	0.0000	33.8005
0.1380	0.0000	33.7355
0.1390	0.0000	33.6706
0.1400	0.0000	33.6056
0.1410	0.0000	33.5406
0.1420	0.0000	33.4757
0.1430	0.0000	33.4107
0.1440	0.0000	33.3458
0.1450	0.0000	33.2808
0.1460	0.0000	33.2158
0.1470	0.0000	33.1509
0.1480	0.0000	33.0859
0.1490	0.0000	33.0210
0.1500	0.0000	32.9560
0.1510	0.0000	32.8910
0.1520	0.0000	32.8261
0.1530	0.0000	32.7611
0.1540	0.0000	32.6962
0.1550	0.0000	32.6312
0.1560	0.0000	32.5662
0.1570	0.0000	32.5013
0.1580	0.0000	32.4363
0.1590	0.0000	32.3714
0.1600	0.0000	32.3064
0.1610	0.0000	32.2414
0.1620	0.0000	32.1765
0.1630	0.0000	32.1115
0.1640	0.0000	32.0466
0.1650	0.0000	31.9816
0.1660	0.0000	31.9166
0.1670	0.0000	31.8517
0.1680	0.0000	31.7867
0.1690	0.0000	31.7218
0.1700	0.0000	31.6568
0.1710	0.0000	31.5918
0.1720	0.0000	31.5269
0.1730	0.0000	31.4619
0.1740	0.0000	31.3970
0.1750	0.0000	31.3320
0.1760	0.0000	31.2670
0.1770	0.0000	31.2021
0.1780	0.0000	31.1371
0.1790	0.0000	31.0722
0.1800	0.0000	31.0072
